<?xml version="1.0" encoding="UTF-8" standalone="no"?>
<svg xmlns="http://www.w3.org/2000/svg" viewBox="0 0 512 512" width="100%" height="100%">
  <!-- Grupo principal que herda currentColor para preenchimento -->
  <g id="alinix-logo-group" fill="currentColor">
    <!-- Uva Esquerda (Inteira) -->
    <circle cx="185" cy="335" r="85" />

    <!-- Uva Direita (Com mordida) -->
    <path d="M 411.25,294.88 A 105,105 0 1,1 411.25,175.12 A 60,60 0 0,0 411.25,294.88 Z" />

    <!-- Folha -->
    <path d="M 245,100 C 285,60 345,70 375,110 C 330,130 270,120 245,100 Z" />

    <!-- Haste Principal -->
    <path d="M 243.731,67.817 L 242.231,64.642 L 239.630,62.283 L 236.325,61.098 L 232.817,61.269 L 229.642,62.769 L 227.283,65.370 L 226.098,68.675 L 226.269,72.183 L 227.226,76.087 L 228.138,79.959 L 229.007,83.799 L 229.831,87.609 L 230.614,91.390 L 231.355,95.143 L 232.055,98.869 L 232.715,102.569 L 233.337,106.246 L 233.921,109.899 L 234.468,113.530 L 234.979,117.141 L 235.455,120.733 L 235.896,124.306 L 236.304,127.862 L 236.680,131.403 L 237.023,134.929 L 237.336,138.442 L 237.619,141.942 L 237.873,145.432 L 238.099,148.912 L 238.297,152.384 L 238.469,155.849 L 238.615,159.307 L 238.736,162.761 L 238.833,166.212 L 238.907,169.659 L 238.959,173.106 L 238.990,176.552 L 239.000,180.000 L 239.685,183.444 L 241.636,186.364 L 244.556,188.315 L 248.000,189.000 L 251.444,188.315 L 254.364,186.364 L 256.315,183.444 L 257.000,180.000 L 256.990,176.447 L 256.958,172.891 L 256.905,169.331 L 256.828,165.765 L 256.727,162.192 L 256.601,158.613 L 256.450,155.024 L 256.271,151.426 L 256.065,147.818 L 255.831,144.198 L 255.566,140.565 L 255.272,136.918 L 254.946,133.258 L 254.587,129.581 L 254.196,125.888 L 253.770,122.177 L 253.309,118.448 L 252.813,114.699 L 252.279,110.929 L 251.708,107.138 L 251.099,103.324 L 250.450,99.487 L 249.760,95.625 L 249.029,91.737 L 248.257,87.823 L 247.441,83.881 L 246.581,79.911 L 245.677,75.911 L 244.727,71.880 Z" />

    <!-- Ramo Esquerdo -->
    <path d="M 255.985,144.152 L 256.966,140.780 L 256.582,137.290 L 254.892,134.212 L 252.152,132.015 L 248.780,131.034 L 245.290,131.418 L 242.212,133.108 L 240.015,135.848 L 238.704,138.373 L 237.380,140.927 L 236.044,143.508 L 234.694,146.117 L 233.329,148.752 L 231.949,151.412 L 230.553,154.095 L 229.141,156.802 L 227.711,159.530 L 226.263,162.279 L 224.797,165.048 L 223.312,167.836 L 221.806,170.641 L 220.280,173.463 L 218.732,176.301 L 217.162,179.153 L 215.570,182.019 L 213.954,184.896 L 212.315,187.786 L 210.650,190.685 L 208.961,193.594 L 207.245,196.511 L 205.503,199.434 L 203.734,202.364 L 201.937,205.299 L 200.111,208.237 L 198.257,211.178 L 196.372,214.121 L 194.457,217.065 L 192.512,220.008 L 191.171,223.253 L 191.175,226.765 L 192.522,230.008 L 195.008,232.488 L 198.253,233.829 L 201.765,233.825 L 205.008,232.478 L 207.488,229.992 L 209.509,226.936 L 211.496,223.882 L 213.449,220.832 L 215.369,217.787 L 217.257,214.748 L 219.114,211.716 L 220.940,208.693 L 222.735,205.679 L 224.501,202.676 L 226.239,199.685 L 227.948,196.707 L 229.630,193.744 L 231.285,190.795 L 232.914,187.863 L 234.518,184.949 L 236.097,182.054 L 237.653,179.178 L 239.184,176.324 L 240.694,173.492 L 242.181,170.684 L 243.647,167.900 L 245.092,165.142 L 246.517,162.411 L 247.923,159.708 L 249.310,157.035 L 250.679,154.392 L 252.030,151.782 L 253.364,149.204 L 254.683,146.660 Z" />

    <!-- Ramo Direito -->
    <path d="M 255.442,134.939 L 252.939,132.476 L 249.684,131.159 L 246.172,131.187 L 242.939,132.558 L 240.476,135.061 L 239.159,138.316 L 239.187,141.828 L 240.558,145.061 L 242.295,147.601 L 244.050,150.139 L 245.824,152.675 L 247.614,155.210 L 249.421,157.743 L 251.243,160.274 L 253.081,162.804 L 254.933,165.332 L 256.799,167.859 L 258.677,170.385 L 260.569,172.909 L 262.471,175.431 L 264.385,177.952 L 266.310,180.472 L 268.244,182.991 L 270.187,185.508 L 272.139,188.024 L 274.098,190.539 L 276.065,193.052 L 278.038,195.565 L 280.016,198.076 L 282.000,200.585 L 283.988,203.094 L 285.980,205.602 L 287.975,208.108 L 289.972,210.613 L 291.971,213.117 L 293.971,215.620 L 295.972,218.122 L 297.972,220.622 L 300.659,222.884 L 304.006,223.945 L 307.505,223.644 L 310.622,222.028 L 312.884,219.341 L 313.945,215.699 L 313.644,212.162 L 312.028,209.378 L 310.028,206.878 L 308.031,204.380 L 306.035,201.883 L 304.042,199.387 L 302.053,196.892 L 300.068,194.398 L 298.088,191.906 L 296.114,189.415 L 294.146,186.924 L 292.185,184.435 L 290.231,181.948 L 288.286,179.461 L 286.349,176.976 L 284.423,174.492 L 282.506,172.009 L 280.600,169.528 L 278.706,167.048 L 276.825,164.569 L 274.956,162.091 L 273.100,159.615 L 271.259,157.141 L 269.433,154.668 L 267.623,152.196 L 265.829,149.726 L 264.051,147.257 L 262.292,144.790 L 260.550,142.325 L 258.828,139.861 L 257.125,137.399 Z" />
  </g>
</svg>
